# xmcd CD database file
#
# Track frame offsets:
#	150
#	20098
#	33132
#	49976
#	71383
#	90119
#	108039
#	123602
#	134874
#	151296
#	165154
#
# Disc length: 2329 seconds
#
# Revision: 0
# Processed by: cddbd v1.5.2PL0 Copyright (c) Steve Scherf et al.
# Submitted via: CDex 2.07
#
DISCID=8409170b
DTITLE=Various Artist - Roots Country Vol. 2
DYEAR=2001
DGENRE=Country
TTITLE0=Becky's Bible - Chris Knight
TTITLE1=A Little Bluer Than That - Irene Kelly
TTITLE2=Are We Almost Ther - Raul Malo
TTITLE3=Smoky Windows - Steve Forbert
TTITLE4=Tonight - Radney Foster
TTITLE5=Before The Next Teardrop Falls - Lydia Miller
TTITLE6=Ain't Nobody Here But Us Chickens - Asleep At The Wheel
TTITLE7=Highway tTo Hell - Hayseed Dixie
TTITLE8=Shores of Jordan - Merle Haggard
TTITLE9=Whats's On My Mind - Jim Lauderdale
TTITLE10=Q106 Cutting Edge Country Show Aircheck - Mary Carol
EXTD=YEAR: 2001
EXTT0=
EXTT1=
EXTT2=
EXTT3=
EXTT4=
EXTT5=
EXTT6=
EXTT7=
EXTT8=
EXTT9=
EXTT10=
PLAYORDER=
